<?xml version="1.0" encoding="utf-8"?>
<!-- Generator: Adobe Illustrator 25.2.0, SVG Export Plug-In . SVG Version: 6.00 Build 0)  -->
<svg version="1.1" id="Layer_1" xmlns="http://www.w3.org/2000/svg" xmlns:xlink="http://www.w3.org/1999/xlink" x="0px" y="0px"
	 viewBox="0 0 64 64" style="enable-background:new 0 0 64 64;" xml:space="preserve">
<g>
	<path d="M49.2,30.8c-5.3-5.3-10.6-10.6-15.9-15.9c-0.8-0.8-1.5-1.5-2.3-2.3c-1.6-1.6-4.1,0.9-2.5,2.5c5.3,5.3,10.6,10.6,15.9,15.9
		c0.3,0.3,0.7,0.7,1,1c-4.9,4.9-9.8,9.8-14.7,14.7c-0.8,0.8-1.5,1.5-2.3,2.3c-1.6,1.6,0.9,4.1,2.5,2.5c5.3-5.3,10.6-10.6,15.9-15.9
		c0.8-0.8,1.5-1.5,2.3-2.3C49.9,32.5,49.9,31.5,49.2,30.8z"/>
	<path d="M35.7,33.3c0.7-0.7,0.7-1.8,0-2.5c-5.3-5.3-10.6-10.6-15.9-15.9c-0.8-0.8-1.5-1.5-2.3-2.3C15.9,11,13.4,13.5,15,15
		c5.3,5.3,10.6,10.6,15.9,15.9c0.3,0.3,0.7,0.7,1,1c-4.9,4.9-9.8,9.8-14.7,14.7c-0.8,0.8-1.5,1.5-2.3,2.3c-1.6,1.6,0.9,4.1,2.5,2.5
		c5.3-5.3,10.6-10.6,15.9-15.9C34.1,34.8,34.9,34,35.7,33.3z"/>
</g>
</svg>
