<?xml version="1.0" encoding="utf-8"?>
<!-- Generator: Adobe Illustrator 25.2.0, SVG Export Plug-In . SVG Version: 6.00 Build 0)  -->
<svg version="1.1" id="Layer_1" xmlns="http://www.w3.org/2000/svg" xmlns:xlink="http://www.w3.org/1999/xlink" x="0px" y="0px"
	 viewBox="0 0 64 64" style="enable-background:new 0 0 64 64;" xml:space="preserve">
<g>
	<path d="M20,32.8c-0.2-0.2-0.4-0.4-0.7-0.7c4.5-4.5,9-9,13.5-13.5c0.7-0.7,1.4-1.4,2.1-2.1c1.8-1.8-1-4.7-2.8-2.8
		c-5,5-10,10-14.9,14.9c-0.7,0.7-1.4,1.4-2.1,2.1c-0.8,0.8-0.8,2.1,0,2.8c4.9,4.9,9.8,9.8,14.7,14.7c0.7,0.7,1.4,1.4,2.1,2.1
		c1.8,1.8,4.7-1,2.8-2.8C29.8,42.5,24.9,37.6,20,32.8z"/>
	<path d="M34,32.8c-0.2-0.2-0.4-0.4-0.7-0.7c4.5-4.5,9-9,13.5-13.5c0.7-0.7,1.4-1.4,2.1-2.1c1.8-1.8-1-4.7-2.8-2.8
		c-5,5-10,10-14.9,14.9c-0.7,0.7-1.4,1.4-2.1,2.1c-0.8,0.8-0.8,2.1,0,2.8c4.9,4.9,9.8,9.8,14.7,14.7c0.7,0.7,1.4,1.4,2.1,2.1
		c1.8,1.8,4.7-1,2.8-2.8C43.8,42.5,38.9,37.6,34,32.8z"/>
</g>
</svg>
